<svg version="1.1" xmlns="http://www.w3.org/2000/svg" xmlns:xlink="http://www.w3.org/1999/xlink" viewBox="0 0 172 172"><g fill="none" fill-rule="nonzero" stroke="none" stroke-width="1" stroke-linecap="butt" stroke-linejoin="miter" stroke-miterlimit="10" stroke-dasharray="" stroke-dashoffset="0" font-family="none" font-weight="none" font-size="none" text-anchor="none" style="mix-blend-mode: normal"><path d="M0,172v-172h172v172z" fill="none"></path><g fill="#e74c3c"><path d="M53.91797,51.46143c-1.34912,0 -2.7326,0.07995 -4.16772,0.25195l0.81885,2.57202c1.26312,-0.13437 2.51617,-0.17847 3.7793,-0.17847h0.44092zM70.50489,54.02295l-0.16797,2.86597c1.43512,0.48375 2.82297,1.01033 4.20972,1.57471l0.17847,-2.91846c-0.39238,-0.215 -1.48434,-0.73747 -4.22021,-1.52222zM34.75903,55.67114c-1.08575,0.56437 -2.21912,1.1699 -3.39087,1.86865l1.99463,3.04443c1.12875,-0.69875 2.22013,-1.34627 3.34888,-1.91064zM54.47437,55.80761c-1.21834,0.00899 -2.45193,0.07517 -3.68482,0.19947c-12.685,1.12875 -28.2683,12.68332 -37.35205,27.84082c-9.1375,15.21125 -10.37207,28.11377 -10.37207,28.11377h34.28662c0,0 -6.55582,-29.93917 15.15918,-42.08667c4.515,-2.20375 18.55131,-10.16295 41.34131,5.10205l1.71118,-1.55371c-6.45,-5.54297 -22.81429,-17.75056 -41.08935,-17.61572zM70.4209,67.67041l-0.16797,2.72949c1.43512,0.043 2.85858,0.21853 4.29371,0.5249l0.17847,-2.698c-1.47275,-0.301 -2.91207,-0.47039 -4.3042,-0.55639zM60.25879,68.70972c-1.47812,0.43 -2.73554,0.91787 -3.82129,1.39624l0.99732,2.99194c1.25775,-0.60738 2.52155,-1.12984 3.7793,-1.52222zM17.2063,68.88818c-1.12875,1.08575 -2.21265,2.16865 -3.2124,3.2544l3.33838,2.86597c0.91375,-1.17175 1.9177,-2.34711 2.96045,-3.43286zM48.31201,75.31299c-0.99975,0.91913 -1.91862,1.90821 -2.698,2.90796l2.08911,3.12842c0.73638,-1.08575 1.60477,-2.08668 2.56152,-3.08643zM54.55835,81.50683v29.89844h7.27514v-8.26196l0.92383,0.95533l6.82373,7.30664h11.04395l-9.58472,-9.6687l1.14429,-0.10498c0.28487,-0.02687 7.11767,-0.75065 7.11767,-9.93115c0,-9.19662 -8.37551,-10.16135 -8.68188,-10.19361zM91.96289,81.7168c-5.64375,0 -7.5481,5.18847 -7.5481,7.5481v22.14038h7.40112v-5.42749h9.02832v5.42749h7.12817v-22.14038c0,-6.15438 -5.5811,-7.5481 -7.5376,-7.5481zM112.91699,81.7168v29.67798h7.74756v-29.67798zM125.33618,81.7168v29.68847h19.57886v-6.87622h-11.8628v-22.81226zM156.04297,81.7168c-3.182,0 -7.59009,2.66457 -7.59009,7.67407v2.73999c0,5.14925 4.53171,7.5481 7.59009,7.5481l3.85278,0.0105c0.60737,-0.01613 3.38037,-0.0105 3.38037,-0.0105v4.89209l-14.39282,0.04199v6.78173h13.67896c2.82725,0 7.37634,-2.04972 7.53759,-7.53759v-3.04444c0,-4.71925 -3.83422,-7.53759 -7.53759,-7.53759h-7.62158v-4.72413h14.03589v-6.83423zM40.62744,87.42773c-0.56975,1.6125 -0.96288,3.22298 -1.31226,4.78711l3.52734,2.78198c0.172,-1.69313 0.47796,-3.39305 0.91333,-5.09155zM94.96533,87.98413h2.89746c2.26825,0 2.91795,1.44083 2.93945,2.22558v8.0625h-9.02832v-8.0625c0,-0.0215 0.04166,-2.22558 3.19141,-2.22558zM61.84399,88.19409l7.41163,0.03149c0.086,0.03762 2.21509,0.87075 2.21509,4.03125c0,3.15513 -2.15579,4.02949 -2.44604,4.10474h-7.18067zM2.1731,89.18091c-0.82238,1.86513 -1.73772,4.03528 -2.1731,5.20703l4.99707,1.82666c0.56438,-1.47812 1.47435,-3.61041 2.1731,-5.21753zM38.66431,103.24829c0.086,2.3005 0.3099,4.16873 0.5249,5.46948l5.21753,1.86866c-0.39238,-1.69312 -0.78643,-3.60545 -1.04981,-5.64795z"></path></g></g></svg>